<?xml version="1.0" encoding="UTF-8" standalone="no"?>
<svg
   width="128"
   height="128"
   viewBox="0 0 128 128"
   fill="none"
   version="1.1"
   id="svg2"
   sodipodi:docname="favicon.svg"
   inkscape:version="1.4.3 (0d15f75, 2025-12-25)"
   xmlns:inkscape="http://www.inkscape.org/namespaces/inkscape"
   xmlns:sodipodi="http://sodipodi.sourceforge.net/DTD/sodipodi-0.dtd"
   xmlns="http://www.w3.org/2000/svg"
   xmlns:svg="http://www.w3.org/2000/svg">
  <defs
     id="defs2" />
  <sodipodi:namedview
     id="namedview2"
     pagecolor="#ffffff"
     bordercolor="#000000"
     borderopacity="0.25"
     inkscape:showpageshadow="2"
     inkscape:pageopacity="0.0"
     inkscape:pagecheckerboard="0"
     inkscape:deskcolor="#d1d1d1"
     inkscape:zoom="6.875"
     inkscape:cx="64"
     inkscape:cy="64"
     inkscape:window-width="2560"
     inkscape:window-height="1305"
     inkscape:window-x="0"
     inkscape:window-y="30"
     inkscape:window-maximized="1"
     inkscape:current-layer="svg2" />
  <rect
     width="128"
     height="128"
     rx="20"
     fill="#67EA94"
     id="rect1" />
  <path
     d="m 76,33.38 c 1.71,0 3.29,0.88 4.21,2.32 l 29.61,47.22 c 0.77,1.22 1.18,2.62 1.18,4.06 0,4.22 -3.42,7.64 -7.64,7.64 H 48.64 C 44.42,94.62 41,91.21 41,86.98 c 0,-1.44 0.41,-2.84 1.18,-4.06 L 71.79,35.7 C 72.69,34.25 74.29,33.38 76,33.38 Z M 84.89,59.62 76,45.46 65.19,62.7 l 2.5,3.34 c 0.88,1.16 2.62,1.16 3.5,0 l 3.5,-4.66 c 0.82,-1.11 29.32,24.97 28.52,23.85 z"
     fill="#2c2d3c"
     id="path1"
     sodipodi:nodetypes="sccssssccsccccccsc" />
  <path
     d="M49 39L18 89"
     stroke="#2C2D3C"
     stroke-width="12"
     stroke-linecap="round"
     id="path2" />
  <path
     d="m 76,33.38 c 1.71,0 3.29,0.88 4.21,2.32 l 29.61,47.22 c 0.77,1.22 1.18,2.62 1.18,4.06 0,4.22 -3.42,7.64 -7.64,7.64 H 48.64 c -4.22,0 -7.64,-3.41 -7.64,-7.64 0,-1.44 0.41,-2.84 1.18,-4.06 L 71.79,35.7 c 0.9,-1.45 2.5,-2.32 4.21,-2.32 z"
     fill="#2c2d3c"
     id="path3"
     sodipodi:nodetypes="sccssssccs" />
</svg>
